<?xml version='1.0' encoding='utf-8'?>
<svg xmlns="http://www.w3.org/2000/svg" enable-background="new 0 0 2000 3000" version="1.1" viewBox="0 0 2000 3000"> <path d="m1e3 2410.9c-83.195 0-170.38-16.501-252.13-47.718-85.012-32.462-162.03-79.135-228.92-138.72-71.551-63.745-127.83-139.23-167.27-224.35-42.875-92.527-64.614-194.18-64.614-302.15 0-132.24 18.268-266.2 54.295-398.15 34.849-127.63 86.218-249.7 148.56-353.01 65.577-108.68 141.08-194.94 224.42-256.36 43.985-32.422 89.866-57.445 136.37-74.373 49.012-17.84 99.244-26.887 149.3-26.887s100.29 9.047 149.3 26.889c46.501 16.928 92.382 41.951 136.37 74.373 83.335 61.427 158.84 147.68 224.42 256.36 62.337 103.31 113.71 225.38 148.56 353.01 36.028 131.94 54.296 265.9 54.296 398.15 0 107.96-21.739 209.62-64.613 302.15-39.444 85.123-95.724 160.6-167.28 224.35-66.885 59.589-143.9 106.26-228.92 138.72-81.753 31.215-168.94 47.716-252.14 47.716z" fill="#EDB65F"/> <path d="m1e3 629.14c-371.65 0-672.94 545.85-672.94 1068.8 0 427.1 358.34 672.94 672.94 672.94s672.94-245.84 672.94-672.94c0-522.93-301.28-1068.8-672.94-1068.8z" fill="#F9D595"/> <path d="m1654.7 1859.2c-6.06 25.87-13.56 50.84-22.36 74.9v0.01l-155.17 66.67-240.33-80.99-236.87 90.62-236.87-90.62-240.33 80.99-155.17-66.67v-0.01c-8.8-24.06-16.3-49.03-22.36-74.9l180.13 77.39 239.02-80.55 235.58 90.13 235.58-90.13 239.02 80.55 180.13-77.39z" fill="#8D60EF"/> <path d="m1655.7 1477.7-174.64 86.15-243.57-81.72-237.53 97.91-237.53-97.91-243.57 81.72-174.64-86.15c3.19-20.62 6.8-41.16 10.83-61.56l168.17 82.96 241.37-80.98 235.37 97.03 235.37-97.03 241.37 80.98 168.17-82.96c4.03 20.4 7.64 40.94 10.83 61.56z" fill="#8D60EF"/> <path d="m1529.4 2116c-18.63 23.08-38.69 44.69-59.93 64.79-156.12 11.26-312.77 16.88-469.43 16.88s-313.31-5.62-469.43-16.88c-21.24-20.1-41.3-41.71-59.93-64.79 351.86 28.89 706.86 28.89 1058.7 0z" fill="#fff"/> <path d="m444.58 1254.2c0 13.16-5.34 26.05-14.65 35.36-9.3 9.3-22.19 14.64-35.35 14.64-4.23 0-8.43-0.55-12.5-1.61 9-32.3 19.02-64.08 30.01-95.19 6.66 2.49 12.78 6.38 17.84 11.44 9.31 9.31 14.65 22.2 14.65 35.36z" fill="#fff"/> <path d="m599.3 1220.8v-0.01c-1.11-0.07-2.22-0.11-3.32-0.11-26.12 0-48.11 20.29-49.85 46.73-1.81 27.56 19.06 51.36 46.62 53.17 1.11 0.07 2.22 0.11 3.32 0.11 13.06 0 25.09-5.07 34.07-13.45s14.91-20.06 15.78-33.28c0.07-1.12 0.11-2.22 0.11-3.33 0-26.11-20.29-48.09-46.73-49.83z" fill="#E59757"/> <path d="m1453.9 1267.5c-1.74-26.43-23.72-46.72-49.84-46.72-1.1 0-2.21 0.04-3.33 0.11-27.55 1.81-48.42 25.61-46.61 53.17 0.86 13.22 6.8 24.9 15.77 33.27 8.98 8.38 21.01 13.45 34.07 13.45 1.1 0 2.21-0.03 3.33-0.11 26.43-1.74 46.72-23.72 46.72-49.84 0-1.1-0.04-2.21-0.11-3.33z" fill="#E59757"/> <path d="m799.54 1230.7c-0.56-0.02-1.11-0.03-1.66-0.03-26.86 0-49.07 21.33-49.95 48.37-0.91 27.6 20.74 50.7 48.34 51.61 0.55 0.02 1.11 0.03 1.66 0.03 13.43 0 25.69-5.33 34.71-14.04s14.8-20.81 15.24-34.33c0.02-0.56 0.03-1.11 0.03-1.66 0-26.86-21.33-49.06-48.37-49.95z" fill="#fff"/> <path d="m1252.1 1279c-0.89-27.04-23.09-48.36-49.94-48.36-0.56 0-1.12 0.01-1.68 0.03-27.6 0.9-49.24 24.01-48.33 51.61 0.44 13.52 6.22 25.61 15.24 34.32 9.01 8.71 21.28 14.04 34.7 14.04 0.56 0 1.11-0.01 1.67-0.03 27.04-0.88 48.37-23.09 48.37-49.95 0-0.55-0.01-1.1-0.03-1.66z" fill="#fff"/> <path d="m1035.4 1248.6c-9.05-9.05-21.55-14.65-35.36-14.65h-0.02c-27.6 0-49.98 22.38-49.98 49.99-0.01 27.61 22.38 50 49.99 50.01h0.01c13.8 0 26.3-5.6 35.35-14.65 9.05-9.04 14.65-21.54 14.65-35.35s-5.6-26.31-14.64-35.35z" fill="#E59757"/> <path d="m1617.9 1302.6c-4.07 1.06-8.27 1.61-12.5 1.61-13.16 0-26.05-5.34-35.36-14.65-9.3-9.3-14.64-22.19-14.64-35.35s5.34-26.05 14.64-35.36c5.07-5.06 11.19-8.95 17.85-11.44 10.99 31.11 21.01 62.89 30.01 95.19z" fill="#fff"/> <path d="m394.58 1757.8c-13.16 0-26.05-5.34-35.36-14.64-9.3-9.31-14.64-22.2-14.64-35.36s5.34-26.05 14.64-35.36c9.31-9.3 22.2-14.64 35.36-14.64s26.05 5.34 35.35 14.64c9.31 9.31 14.65 22.2 14.65 35.36s-5.34 26.05-14.65 35.36c-9.3 9.3-22.19 14.64-35.35 14.64z" fill="#5FA9F2"/> <path d="m599.3 1674.4v-0.01c-1.11-0.07-2.22-0.11-3.32-0.11-26.12 0-48.11 20.29-49.85 46.73-1.81 27.56 19.06 51.36 46.62 53.17 1.11 0.07 2.22 0.11 3.32 0.11 13.06 0 25.09-5.07 34.07-13.45s14.91-20.06 15.78-33.28c0.07-1.12 0.11-2.22 0.11-3.33 0-26.11-20.29-48.09-46.73-49.83z" fill="#fff"/> <path d="m1453.9 1721c-1.74-26.43-23.72-46.72-49.84-46.72-1.1 0-2.21 0.04-3.33 0.11-27.55 1.81-48.42 25.61-46.61 53.17 0.86 13.21 6.8 24.89 15.77 33.27 8.98 8.38 21.01 13.45 34.07 13.45 1.1 0 2.21-0.03 3.33-0.11 26.43-1.74 46.72-23.72 46.72-49.84 0-1.1-0.04-2.21-0.11-3.33z" fill="#fff"/> <path d="m799.54 1684.3c-0.56-0.02-1.11-0.03-1.66-0.03-26.86 0-49.07 21.33-49.95 48.37-0.91 27.6 20.74 50.7 48.34 51.61 0.55 0.02 1.11 0.03 1.66 0.03 13.43 0 25.69-5.33 34.71-14.04s14.8-20.8 15.24-34.33c0.02-0.56 0.03-1.11 0.03-1.66 0-26.86-21.33-49.06-48.37-49.95z" fill="#5FA9F2"/> <path d="m1252.1 1732.6c-0.89-27.04-23.09-48.36-49.94-48.36-0.56 0-1.12 0.01-1.68 0.03-27.6 0.9-49.24 24.01-48.33 51.61 0.44 13.52 6.22 25.61 15.24 34.32 9.01 8.71 21.28 14.04 34.7 14.04 0.56 0 1.11-0.01 1.67-0.03 27.04-0.88 48.37-23.09 48.37-49.95 0-0.55-0.01-1.1-0.03-1.66z" fill="#5FA9F2"/> <path d="m1035.4 1702.2c-9.05-9.05-21.55-14.65-35.36-14.65h-0.02c-27.6 0-49.98 22.38-49.98 49.99-0.01 27.61 22.38 50 49.99 50.01h0.01c13.8 0 26.3-5.6 35.35-14.65s14.65-21.55 14.65-35.35-5.6-26.3-14.64-35.35z" fill="#fff"/> <path d="m1605.4 1757.8c-13.16 0-26.05-5.34-35.36-14.65-9.3-9.3-14.64-22.19-14.64-35.35s5.34-26.05 14.64-35.36c9.311-9.3 22.2-14.64 35.36-14.64s26.05 5.34 35.35 14.64c9.311 9.31 14.65 22.2 14.65 35.36s-5.34 26.05-14.65 35.35c-9.3 9.31-22.19 14.65-35.35 14.65z" fill="#5FA9F2"/> <path d="m1499.9 1009.2-159.28 105.74-172.79-90.11-167.81 99.08-167.81-99.08-172.79 90.11-159.28-105.74c9.74-17.77 19.83-35.1 30.24-51.95l132.71 88.11 170.93-89.14 166 98.01 166-98.02 170.93 89.15 132.71-88.1 30.22 51.91 0.02 0.03z" fill="#8D60EF"/> <path d="m664.27 885.67c-7.9 0-15.63-3.2-21.21-8.79-5.59-5.58-8.79-13.31-8.79-21.21s3.2-15.63 8.79-21.21c5.58-5.59 13.31-8.79 21.21-8.79s15.63 3.2 21.21 8.79c5.59 5.58 8.79 13.31 8.79 21.21s-3.2 15.63-8.79 21.21c-5.58 5.59-13.31 8.79-21.21 8.79z" fill="#fff"/> <path d="m1231.5 860.97c-0.58-16.2-13.89-28.94-29.96-28.94-0.36 0-0.73 0.01-1.09 0.02-16.55 0.59-29.5 14.49-28.91 31.05 0.29 8.1 3.76 15.33 9.17 20.54 5.41 5.2 12.76 8.39 20.79 8.39 0.36 0 0.72 0 1.09-0.02 16.19-0.57 28.93-13.89 28.93-29.95 0-0.36-0.01-0.73-0.02-1.09z" fill="#fff"/> <path d="m799.55 832.05c-0.36-0.01-0.73-0.02-1.09-0.02-16.07 0-29.38 12.74-29.96 28.94-0.58 16.56 12.36 30.46 28.92 31.05 0.36 0.01 0.72 0.02 1.08 0.02 8.04 0 15.39-3.18 20.8-8.4 5.41-5.2 8.88-12.44 9.17-20.54 0.01-0.36 0.02-0.73 0.02-1.09 0-16.07-12.74-29.38-28.94-29.96z" fill="#5FA9F2"/> <path d="m1067.2 835.22h-0.37c-16.56 0.19-29.83 13.78-29.64 30.35 0.1 8.23 3.5 15.64 8.92 20.99 5.42 5.36 12.88 8.66 21.08 8.66 0.12 0 0.24 0 0.36-0.01 16.44-0.19 29.64-13.59 29.64-30v-0.35c-0.2-16.45-13.59-29.64-29.99-29.64z" fill="#5FA9F2"/> <path d="m933.17 835.22h-0.37c-16.4 0-29.79 13.19-29.98 29.64-0.2 16.57 13.07 30.16 29.64 30.35 0.12 0.01 0.24 0.01 0.36 0.01 8.2 0 15.65-3.3 21.07-8.66 5.43-5.35 8.83-12.76 8.92-20.99v-0.37c0-16.4-13.19-29.79-29.64-29.98z" fill="#fff"/> <path d="m1335.7 885.67c-7.9 0-15.63-3.2-21.21-8.79-5.59-5.58-8.79-13.31-8.79-21.21s3.2-15.63 8.79-21.21c5.58-5.59 13.31-8.79 21.21-8.79s15.63 3.2 21.21 8.79c5.59 5.58 8.79 13.31 8.79 21.21s-3.2 15.63-8.79 21.21c-5.58 5.59-13.31 8.79-21.21 8.79z" fill="#5FA9F2"/> </svg>